HIERARCHY
ROOT joint_Root
{
	OFFSET 0.0 0.0 0.0
	CHANNELS 6 Xposition Yposition Zposition Zrotation Xrotation Yrotation 
	JOINT Hips
	{
		OFFSET 4.5925 91.4895 -427.239
		CHANNELS 6 Xposition Yposition Zposition Zrotation Xrotation Yrotation 
		JOINT Spine
		{
			OFFSET 15.7357 0.0 0.0
			CHANNELS 6 Xposition Yposition Zposition Zrotation Xrotation Yrotation 
			JOINT Chest
			{
				OFFSET 8.98455 -0.406207 0.0
				CHANNELS 6 Xposition Yposition Zposition Zrotation Xrotation Yrotation 
				JOINT Neck
				{
					OFFSET 16.3773 0.0 0.0
					CHANNELS 6 Xposition Yposition Zposition Zrotation Xrotation Yrotation 
					JOINT Head
					{
						OFFSET 6.45672 0.0 0.0
						CHANNELS 6 Xposition Yposition Zposition Zrotation Xrotation Yrotation 
						End Site
						{
							OFFSET 0.0 0.0 0.0
						}
					}
				}
				JOINT Shoulder_L
				{
					OFFSET 12.9942 -0.242716 4.98039
					CHANNELS 6 Xposition Yposition Zposition Zrotation Xrotation Yrotation 
					JOINT UpperArm_L
					{
						OFFSET 5.34809 0.0 0.0
						CHANNELS 6 Xposition Yposition Zposition Zrotation Xrotation Yrotation 
						JOINT LowerArm_L
						{
							OFFSET 24.3286 1.87007e-05 0.0
							CHANNELS 6 Xposition Yposition Zposition Zrotation Xrotation Yrotation 
							JOINT Hand_L
							{
								OFFSET 22.2916 0.0 0.0
								CHANNELS 6 Xposition Yposition Zposition Zrotation Xrotation Yrotation 
								End Site
								{
									OFFSET 0.0 0.0 0.0
								}
							}
						}
					}
				}
				JOINT Shoulder_R
				{
					OFFSET 12.9945 -0.242716 -4.98039
					CHANNELS 6 Xposition Yposition Zposition Zrotation Xrotation Yrotation 
					JOINT UpperArm_R
					{
						OFFSET -5.34813 0.0 0.0
						CHANNELS 6 Xposition Yposition Zposition Zrotation Xrotation Yrotation 
						JOINT LowerArm_R
						{
							OFFSET -24.3289 0.000322201 0.0
							CHANNELS 6 Xposition Yposition Zposition Zrotation Xrotation Yrotation 
							JOINT Hand_R
							{
								OFFSET -22.2915 -0.000108084 0.0
								CHANNELS 6 Xposition Yposition Zposition Zrotation Xrotation Yrotation 
								End Site
								{
									OFFSET 0.0 0.0 0.0
								}
							}
						}
					}
				}
			}
		}
		JOINT UpperLeg_L
		{
			OFFSET -2.19248 -6.46944 0.0
			CHANNELS 6 Xposition Yposition Zposition Zrotation Xrotation Yrotation 
			JOINT LowerLeg_L
			{
				OFFSET 39.0811 0.0 -1.23785e-05
				CHANNELS 6 Xposition Yposition Zposition Zrotation Xrotation Yrotation 
				JOINT Foot_L
				{
					OFFSET 40.9854 0.0 -1.26872e-05
					CHANNELS 6 Xposition Yposition Zposition Zrotation Xrotation Yrotation 
					JOINT Toes_L
					{
						OFFSET 11.7543 0.0 0.0
						CHANNELS 6 Xposition Yposition Zposition Zrotation Xrotation Yrotation 
						End Site
						{
							OFFSET 0.0 0.0 0.0
						}
					}
				}
			}
		}
		JOINT UpperLeg_R
		{
			OFFSET -2.19251 6.46944 0.0
			CHANNELS 6 Xposition Yposition Zposition Zrotation Xrotation Yrotation 
			JOINT LowerLeg_R
			{
				OFFSET -39.0811 -0.00228153 -0.0401928
				CHANNELS 6 Xposition Yposition Zposition Zrotation Xrotation Yrotation 
				JOINT Foot_R
				{
					OFFSET -40.9854 0.0 0.0
					CHANNELS 6 Xposition Yposition Zposition Zrotation Xrotation Yrotation 
					JOINT Toes_R
					{
						OFFSET -11.7543 0.0 0.0
						CHANNELS 6 Xposition Yposition Zposition Zrotation Xrotation Yrotation 
						End Site
						{
							OFFSET 0.0 0.0 0.0
						}
					}
				}
			}
		}
	}
}
MOTION
Frames:	5
Frame Time:	0.0333333
0.000000 0.000000 0.000000 0.000000 0.000000 -0.000000 99.806300 89.684000 181.323000 -87.688700 46.882500 177.162000 15.735700 0.000005 -0.000001 91.063000 80.312200 -91.550600 8.984550 -0.406207 -0.000000 11.608000 0.340192 -1.009350 16.377300 -0.000001 -0.000001 7.390320 4.522510 -3.529780 6.456720 -0.000001 -0.000000 1.061390 7.037970 -2.721690 12.994200 -0.242716 4.980390 -90.877800 2.830270 -72.761300 5.348090 -0.000007 -0.000001 -65.540400 23.832500 -19.465700 24.328600 0.000019 0.000005 16.846200 13.100800 -53.182500 22.291600 -0.000001 0.000005 16.840600 5.269400 0.914424 12.994500 -0.242716 -4.980390 88.788800 8.494790 -81.855100 -5.348130 -0.000001 -0.000004 -61.396300 31.003900 -12.419200 -24.328900 0.000322 -0.000009 2.986420 5.240240 -29.744500 -22.291500 -0.000108 -0.000004 16.014800 5.416940 -3.496080 -2.192480 -6.469440 -0.000000 -174.539000 3.577000 -12.092500 39.081100 -0.000007 -0.000012 -0.316151 0.450699 35.049000 40.985400 -0.000006 -0.000013 1.020810 8.799780 -75.188700 11.754300 -0.000000 0.000003 -0.000359 -0.003021 -16.689400 -2.192510 6.469440 -0.000001 179.755000 22.630400 153.818000 -39.081100 -0.002282 -0.040193 0.029574 -0.043857 30.925000 -40.985400 0.000008 0.000006 -0.210461 11.881700 -55.791200 -11.754300 -0.000006 -0.000006 -0.009002 -0.096021 -20.484200
0.000000 0.000000 0.000000 0.000000 0.000000 -0.000000 102.098000 89.564800 181.109000 -88.339900 44.954700 178.029000 15.735700 0.000005 -0.000001 91.596200 80.178000 -91.979400 8.984550 -0.406207 -0.000000 11.872700 0.528804 -0.821242 16.377300 -0.000001 -0.000001 7.413180 4.397810 -3.451550 6.456720 -0.000001 -0.000000 1.205450 6.859700 -2.867960 12.994200 -0.242716 4.980390 -90.893500 2.863400 -72.662300 5.348090 -0.000007 -0.000001 -66.749700 23.334900 -18.533600 24.328600 0.000019 0.000005 16.927100 13.838400 -51.835600 22.291600 -0.000001 0.000005 17.372300 5.264430 1.048380 12.994500 -0.242716 -4.980390 88.815000 8.409660 -81.949800 -5.348130 -0.000001 -0.000004 -61.063300 31.266700 -13.182600 -24.328900 0.000322 -0.000009 2.429730 4.387080 -29.028400 -22.291500 -0.000108 -0.000004 16.131000 5.414470 -3.413570 -2.192480 -6.469440 -0.000000 -174.492000 4.043700 -11.795400 39.081100 -0.000007 -0.000012 0.020532 -0.027339 36.904200 40.985400 -0.000006 -0.000013 4.283490 8.775730 -74.883700 11.754300 -0.000000 0.000003 -2.037880 -2.582670 -17.843400 -2.192510 6.469440 -0.000001 179.261000 22.871700 154.508000 -39.081100 -0.002282 -0.040193 -0.041168 0.066501 33.766200 -40.985400 0.000008 0.000006 0.268169 10.198700 -58.953700 -11.754300 -0.000006 -0.000006 -0.005501 -0.066234 -19.268300
0.000000 0.000000 0.000000 0.000000 0.000000 -0.000000 104.273000 89.617400 180.888000 -89.140700 42.896500 178.955000 15.735700 0.000005 -0.000001 91.841200 80.056000 -92.182000 8.984550 -0.406207 -0.000000 12.114200 0.620430 -0.747225 16.377300 -0.000001 -0.000001 7.393550 4.166290 -3.253480 6.456720 -0.000001 -0.000000 1.278200 6.537340 -2.800070 12.994200 -0.242716 4.980390 -90.887300 2.848860 -72.692000 5.348090 -0.000007 -0.000001 -67.797400 23.192200 -17.457500 24.328600 0.000019 0.000005 15.925200 14.282500 -49.152700 22.291600 -0.000001 0.000005 18.124800 5.251630 1.389570 12.994500 -0.242716 -4.980390 88.839700 8.343660 -82.054600 -5.348130 -0.000001 -0.000004 -60.350800 31.600400 -14.425200 -24.328900 0.000322 -0.000009 2.158170 4.028440 -28.222300 -22.291500 -0.000108 -0.000004 16.049500 5.407280 -3.175630 -2.192480 -6.469440 -0.000000 -173.973000 4.118050 -13.457700 39.081100 -0.000007 -0.000012 0.028620 -0.032852 41.059300 40.985400 -0.000006 -0.000013 3.831620 10.780000 -71.320500 11.754300 -0.000000 0.000003 -0.008419 -0.091427 -20.300200 -2.192510 6.469440 -0.000001 178.907000 24.700800 155.726000 -39.081100 -0.002282 -0.040193 -0.069781 0.103176 35.306900 -40.985400 0.000008 0.000006 0.998048 9.935560 -61.449600 -11.754300 -0.000006 -0.000006 -0.004391 -0.055449 -18.828900
0.000000 0.000000 0.000000 0.000000 0.000000 -0.000000 106.286000 89.780800 180.649000 -89.664900 40.572800 179.461000 15.735700 0.000005 -0.000001 91.789300 80.040600 -92.044200 8.984550 -0.406207 -0.000000 12.144900 0.606671 -0.574335 16.377300 -0.000001 -0.000001 7.369580 3.880450 -2.946530 6.456720 -0.000001 -0.000000 1.386930 6.070410 -2.649410 12.994200 -0.242716 4.980390 -90.859100 2.766540 -72.741600 5.348090 -0.000007 -0.000001 -68.450500 23.604500 -16.482500 24.328600 0.000019 0.000005 14.731100 15.049400 -45.358700 22.291600 -0.000001 0.000005 18.186000 5.251950 1.381230 12.994500 -0.242716 -4.980390 88.848500 8.296750 -82.069900 -5.348130 -0.000001 -0.000004 -59.381600 31.942900 -15.854100 -24.328900 0.000322 -0.000009 2.347220 4.485500 -27.670700 -22.291500 -0.000108 -0.000004 16.185700 5.397570 -2.858590 -2.192480 -6.469440 -0.000000 -173.368000 4.033850 -16.077100 39.081100 -0.000007 -0.000012 0.051797 -0.050398 45.782200 40.985400 -0.000006 -0.000013 1.963650 12.015900 -67.086200 11.754300 -0.000000 0.000003 -0.015664 -0.141971 -22.370300 -2.192510 6.469440 -0.000001 178.772000 26.871600 157.198000 -39.081100 -0.002282 -0.040193 -0.096867 0.138799 35.813900 -40.985400 0.000008 0.000006 1.596640 9.707630 -63.367300 -11.754300 -0.000006 -0.000006 -0.003987 -0.051305 -18.660100
0.000000 0.000000 0.000000 0.000000 0.000000 -0.000000 108.106000 89.956200 180.284000 -90.169400 38.749900 179.920000 15.735700 0.000005 -0.000001 92.552000 80.033100 -92.777800 8.984550 -0.406207 -0.000000 12.150800 0.871020 -0.544322 16.377300 -0.000001 -0.000001 7.256630 3.562320 -2.714090 6.456720 -0.000001 -0.000000 1.410580 5.586090 -2.438700 12.994200 -0.242716 4.980390 -90.864200 2.775250 -72.695600 5.348090 -0.000007 -0.000001 -68.805900 24.241400 -15.332300 24.328600 0.000019 0.000005 14.138600 16.450200 -41.653900 22.291600 -0.000001 0.000005 17.250100 5.245490 1.551520 12.994500 -0.242716 -4.980390 88.873900 8.163330 -82.118300 -5.348130 -0.000001 -0.000004 -58.483900 31.757200 -17.100700 -24.328900 0.000322 -0.000009 2.459770 4.692380 -27.714900 -22.291500 -0.000108 -0.000004 16.326500 5.397730 -2.863750 -2.192480 -6.469440 -0.000000 -173.300000 2.945250 -18.579700 39.081100 -0.000007 -0.000012 0.085271 -0.071569 49.991200 40.985400 -0.000006 -0.000013 -1.419240 10.604100 -63.030700 11.754300 -0.000000 0.000003 -0.006791 -0.077868 -19.746600 -2.192510 6.469440 -0.000001 178.499000 28.547900 158.770000 -39.081100 -0.002282 -0.040193 -0.122267 0.173477 35.895600 -40.985400 0.000008 0.000006 2.000890 9.444510 -64.924400 -11.754300 -0.000006 -0.000006 -0.003497 -0.046102 -18.448200
